<svg xmlns="http://www.w3.org/2000/svg" xmlns:xlink="http://www.w3.org/1999/xlink" contentStyleType="text/css" height="641px" preserveAspectRatio="none" style="width:583px;height:641px;background:#FAFAFA;" version="1.1" viewBox="0 0 583 641" width="583px" zoomAndPan="magnify"><title>&#22270;3.1 &#31995;&#32479;&#19994;&#21153;&#27969;&#31243;&#22270;</title><defs/><g><rect fill="#FAFAFA" height="641" style="stroke:none;stroke-width:1;" width="583" x="0" y="0"/><text fill="#000000" font-family="Microsoft YaHei" font-size="14" font-weight="bold" lengthAdjust="spacing" textLength="137.4365" x="221.6431" y="34.8135">&#22270;3.1 &#31995;&#32479;&#19994;&#21153;&#27969;&#31243;&#22270;</text><ellipse cx="99" cy="59.4775" fill="#222222" rx="10" ry="10" style="stroke:#222222;stroke-width:1;"/><rect fill="#E3F2FD" height="35.8379" rx="12.5" ry="12.5" style="stroke:#1976D2;stroke-width:0.5;" width="73.127" x="62.4365" y="89.4775"/><text fill="#000000" font-family="Microsoft YaHei" font-size="12" lengthAdjust="spacing" textLength="53.127" x="72.4365" y="112.1748">&#30331;&#24405;/&#37492;&#26435;</text><rect fill="#E3F2FD" height="51.6758" rx="12.5" ry="12.5" style="stroke:#1976D2;stroke-width:0.5;" width="122.2695" x="37.8652" y="145.3154"/><text fill="#000000" font-family="Microsoft YaHei" font-size="12" lengthAdjust="spacing" textLength="48" x="47.8652" y="168.0127">&#26696;&#20363;&#26816;&#32034;</text><text fill="#000000" font-family="Microsoft YaHei" font-size="12" lengthAdjust="spacing" textLength="102.2695" x="47.8652" y="183.8506">(&#20851;&#38190;&#35789;/&#27861;&#22495;/&#26102;&#38388;)</text><rect fill="#E3F2FD" height="35.8379" rx="12.5" ry="12.5" style="stroke:#1976D2;stroke-width:0.5;" width="92" x="53" y="216.9912"/><text fill="#000000" font-family="Microsoft YaHei" font-size="12" lengthAdjust="spacing" textLength="72" x="63" y="239.6885">&#32467;&#26524;&#21015;&#34920;&#20998;&#39029;</text><rect fill="#E3F2FD" height="35.8379" rx="12.5" ry="12.5" style="stroke:#1976D2;stroke-width:0.5;" width="104" x="47" y="272.8291"/><text fill="#000000" font-family="Microsoft YaHei" font-size="12" lengthAdjust="spacing" textLength="84" x="57" y="295.5264">&#38405;&#35835;&#22120;&#26597;&#30475;&#21407;&#25991;</text><rect fill="#E3F2FD" height="51.6758" rx="12.5" ry="12.5" style="stroke:#1976D2;stroke-width:0.5;" width="147.0723" x="25.4639" y="328.667"/><text fill="#000000" font-family="Microsoft YaHei" font-size="12" lengthAdjust="spacing" textLength="127.0723" x="35.4639" y="351.3643">&#24322;&#27493; AI &#25688;&#35201;&#19982;&#26696;&#24773;&#38382;&#31572;</text><text fill="#000000" font-family="Microsoft YaHei" font-size="12" lengthAdjust="spacing" textLength="32.0156" x="35.4639" y="367.2021">(&#37197;&#39069;)</text><rect fill="#E3F2FD" height="35.8379" rx="12.5" ry="12.5" style="stroke:#1976D2;stroke-width:0.5;" width="104" x="47" y="449.6018"/><text fill="#000000" font-family="Microsoft YaHei" font-size="12" lengthAdjust="spacing" textLength="84" x="57" y="472.2991">&#20805;&#20540;&#25110;&#27169;&#25311;&#25903;&#20184;</text><polygon fill="#E3F2FD" points="74.344,400.3428,123.656,400.3428,135.656,412.3428,123.656,424.3428,74.344,424.3428,62.344,412.3428,74.344,400.3428" style="stroke:#1976D2;stroke-width:0.5;"/><text fill="#000000" font-family="Microsoft YaHei" font-size="11" lengthAdjust="spacing" textLength="11" x="103" y="435.9819">&#26159;</text><text fill="#000000" font-family="Microsoft YaHei" font-size="11" lengthAdjust="spacing" textLength="49.312" x="74.344" y="416.7229">&#37197;&#39069;&#19981;&#36275;?</text><polygon fill="#E3F2FD" points="99,505.4397,111,517.4397,99,529.4397,87,517.4397,99,505.4397" style="stroke:#1976D2;stroke-width:0.5;"/><rect fill="#E3F2FD" height="35.8379" rx="12.5" ry="12.5" style="stroke:#1976D2;stroke-width:0.5;" width="176" x="11" y="549.4397"/><text fill="#000000" font-family="Microsoft YaHei" font-size="12" lengthAdjust="spacing" textLength="156" x="21" y="572.137">&#25910;&#34255;&#12289;&#27983;&#35272;&#21382;&#21490;&#12289;&#30693;&#35782;&#24211;&#27785;&#28096;</text><path d="M130,602.6987 L130,612.2776 L110,616.2776 L130,620.2776 L130,629.8564 A0,0 0 0 0 130,629.8564 L571.7227,629.8564 A0,0 0 0 0 571.7227,629.8564 L571.7227,612.6987 L561.7227,602.6987 L130,602.6987 A0,0 0 0 0 130,602.6987 " fill="#FEFFDD" style="stroke:#181818;stroke-width:0.5;"/><path d="M561.7227,602.6987 L561.7227,612.6987 L571.7227,612.6987 L561.7227,602.6987 " fill="#FEFFDD" style="stroke:#181818;stroke-width:0.5;"/><text fill="#000000" font-family="Microsoft YaHei" font-size="13" lengthAdjust="spacing" textLength="420.7227" x="136" y="621.4541">&#22806;&#37096;&#65306;crawl.json&#12289;Redis&#12289;MySQL&#12289;\nOpenAI &#20860;&#23481;&#31471;&#28857;&#65288;Ollama &#31561;&#65289;</text><ellipse cx="99" cy="616.2776" fill="none" rx="11" ry="11" style="stroke:#222222;stroke-width:1;"/><ellipse cx="99" cy="616.2776" fill="#222222" rx="6" ry="6" style="stroke:#222222;stroke-width:1;"/><line style="stroke:#181818;stroke-width:1;" x1="99" x2="99" y1="69.4775" y2="89.4775"/><polygon fill="#181818" points="95,79.4775,99,89.4775,103,79.4775,99,83.4775" style="stroke:#181818;stroke-width:1;"/><line style="stroke:#181818;stroke-width:1;" x1="99" x2="99" y1="125.3154" y2="145.3154"/><polygon fill="#181818" points="95,135.3154,99,145.3154,103,135.3154,99,139.3154" style="stroke:#181818;stroke-width:1;"/><line style="stroke:#181818;stroke-width:1;" x1="99" x2="99" y1="196.9912" y2="216.9912"/><polygon fill="#181818" points="95,206.9912,99,216.9912,103,206.9912,99,210.9912" style="stroke:#181818;stroke-width:1;"/><line style="stroke:#181818;stroke-width:1;" x1="99" x2="99" y1="252.8291" y2="272.8291"/><polygon fill="#181818" points="95,262.8291,99,272.8291,103,262.8291,99,266.8291" style="stroke:#181818;stroke-width:1;"/><line style="stroke:#181818;stroke-width:1;" x1="99" x2="99" y1="308.667" y2="328.667"/><polygon fill="#181818" points="95,318.667,99,328.667,103,318.667,99,322.667" style="stroke:#181818;stroke-width:1;"/><line style="stroke:#181818;stroke-width:1;" x1="99" x2="99" y1="424.3428" y2="449.6018"/><polygon fill="#181818" points="95,439.6018,99,449.6018,103,439.6018,99,443.6018" style="stroke:#181818;stroke-width:1;"/><line style="stroke:#181818;stroke-width:1;" x1="135.656" x2="161" y1="412.3428" y2="412.3428"/><polygon fill="#181818" points="157,457.5208,161,467.5208,165,457.5208,161,461.5208" style="stroke:#181818;stroke-width:1;"/><line style="stroke:#181818;stroke-width:1;" x1="161" x2="161" y1="412.3428" y2="517.4397"/><line style="stroke:#181818;stroke-width:1;" x1="161" x2="111" y1="517.4397" y2="517.4397"/><polygon fill="#181818" points="121,513.4397,111,517.4397,121,521.4397,117,517.4397" style="stroke:#181818;stroke-width:1;"/><line style="stroke:#181818;stroke-width:1;" x1="99" x2="99" y1="485.4397" y2="505.4397"/><polygon fill="#181818" points="95,495.4397,99,505.4397,103,495.4397,99,499.4397" style="stroke:#181818;stroke-width:1;"/><line style="stroke:#181818;stroke-width:1;" x1="99" x2="99" y1="380.3428" y2="400.3428"/><polygon fill="#181818" points="95,390.3428,99,400.3428,103,390.3428,99,394.3428" style="stroke:#181818;stroke-width:1;"/><line style="stroke:#181818;stroke-width:1;" x1="99" x2="99" y1="529.4397" y2="549.4397"/><polygon fill="#181818" points="95,539.4397,99,549.4397,103,539.4397,99,543.4397" style="stroke:#181818;stroke-width:1;"/><line style="stroke:#181818;stroke-width:1;" x1="99" x2="99" y1="585.2776" y2="605.2776"/><polygon fill="#181818" points="95,595.2776,99,605.2776,103,595.2776,99,599.2776" style="stroke:#181818;stroke-width:1;"/><!--SRC=[RL1DRzD04BtxLwpAfRaqQYk1I0ueK2AGA1LmGkh5ZJUjgUEDx2sejwIHKuSeYQgcSLfQB1S2bb1YgVaWnQP_1k-kVSfVO2FrK24qXz6yUVFUp60PAn2GJpUhIyk03Ntcs-7qZ7nqwBZCt3fl2Fgkh1P5JIo0BJ6tkwsXFLLwWXIaWNlPp3pkC2IO5_SKd4KgVYaM85XObtCQqb4UWxVYCoWltE5cSbX-B-FznqYJe7QhkFpmmVsrbV-n_lL-kffToQu9Wev53GifTkgJtoV9k3QY5vMqaAAE6TxKwPSI6rrkgel46CRjGUGradHuGcmxIQr9R8qIdCdyO_hvd9XMvBZ4hCREc8DnruWydvowrEwnypffshHpo74I7D1-3sIU0thKZRwLmscJEz6A4Li3rczpfzXen9SNN5ZEWziYd3QYoV1H0k0Tg895slKI0W0fOXYa552pGrs7rctQzaA_cnQWAibvVa1x4bcjFwKo7RUYxoPfLadhYfVCxaLUbVmwfbSr-hEKvWz0HK5G4OP0axTtC9ScNpjnnPq5PpbD_A0ilTEHoYTVGqdMULxVV_Fg1S-RwaOHglmKOWHaSCr-UEpWUXQO6ueY5aJ0-hLPK9kl0-RYVm40]--></g></svg>