<svg xmlns="http://www.w3.org/2000/svg" xmlns:xlink="http://www.w3.org/1999/xlink" contentStyleType="text/css" height="343px" preserveAspectRatio="none" style="width:575px;height:343px;background:#FAFAFA;" version="1.1" viewBox="0 0 575 343" width="575px" zoomAndPan="magnify"><title>&#22270;4.2 &#21518;&#31471;&#21151;&#33021;&#27169;&#22359;&#32467;&#26500;&#22270;&#65288;&#21253;&#32844;&#36131;&#65289;</title><defs/><g><rect fill="#FAFAFA" height="343" style="stroke:none;stroke-width:1;" width="575" x="0" y="0"/><text fill="#000000" font-family="Microsoft YaHei" font-size="14" font-weight="bold" lengthAdjust="spacing" textLength="235.4365" x="162.8184" y="24.8135">&#22270;4.2 &#21518;&#31471;&#21151;&#33021;&#27169;&#22359;&#32467;&#26500;&#22270;&#65288;&#21253;&#32844;&#36131;&#65289;</text><!--entity ctl--><g id="elem_ctl"><rect fill="#E3F2FD" height="56.9551" rx="2.5" ry="2.5" style="stroke:#1565C0;stroke-width:0.5;" width="88.4551" x="213.5" y="46.4775"/><text fill="#000000" font-family="Microsoft YaHei" font-size="14" lengthAdjust="spacing" textLength="64.75" x="223.5" y="71.291">controller</text><text fill="#000000" font-family="Microsoft YaHei" font-size="14" lengthAdjust="spacing" textLength="68.4551" x="223.5" y="89.7686">REST &#183; SSE</text></g><!--entity svc--><g id="elem_svc"><rect fill="#E3F2FD" height="56.9551" rx="2.5" ry="2.5" style="stroke:#1565C0;stroke-width:0.5;" width="180.7402" x="167" y="163.4775"/><text fill="#000000" font-family="Microsoft YaHei" font-size="14" lengthAdjust="spacing" textLength="86.9736" x="177" y="188.291">service &#183; impl</text><text fill="#000000" font-family="Microsoft YaHei" font-size="14" lengthAdjust="spacing" textLength="160.7402" x="177" y="206.7686">&#26816;&#32034;&#183;&#25688;&#35201;&#183;QA&#183;&#25903;&#20184;&#183;&#30693;&#35782;&#24211;</text></g><!--entity dao--><g id="elem_dao"><rect fill="#E3F2FD" height="56.9551" rx="2.5" ry="2.5" style="stroke:#1565C0;stroke-width:0.5;" width="109.2773" x="7" y="280.4775"/><text fill="#000000" font-family="Microsoft YaHei" font-size="14" lengthAdjust="spacing" textLength="89.2773" x="17" y="305.291">dao &#183; mapper</text><text fill="#000000" font-family="Microsoft YaHei" font-size="14" lengthAdjust="spacing" textLength="53.0332" x="17" y="323.7686">MyBatis</text></g><!--entity ut--><g id="elem_ut"><rect fill="#E3F2FD" height="56.9551" rx="2.5" ry="2.5" style="stroke:#1565C0;stroke-width:0.5;" width="76" x="151.5" y="280.4775"/><text fill="#000000" font-family="Microsoft YaHei" font-size="14" lengthAdjust="spacing" textLength="21.2939" x="161.5" y="305.291">util</text><text fill="#000000" font-family="Microsoft YaHei" font-size="14" lengthAdjust="spacing" textLength="56" x="161.5" y="323.7686">&#20998;&#24067;&#24335;&#38145;</text></g><!--entity br--><g id="elem_br"><rect fill="#E3F2FD" height="56.9551" rx="2.5" ry="2.5" style="stroke:#1565C0;stroke-width:0.5;" width="127.1533" x="263" y="280.4775"/><text fill="#000000" font-family="Microsoft YaHei" font-size="14" lengthAdjust="spacing" textLength="98.0957" x="273" y="305.291">crawler-bridge</text><text fill="#000000" font-family="Microsoft YaHei" font-size="14" lengthAdjust="spacing" textLength="107.1533" x="273" y="323.7686">EU&#183;JPN &#21015;&#34920;&#38477;&#32423;</text></g><!--entity cfg--><g id="elem_cfg"><rect fill="#E3F2FD" height="56.9551" rx="2.5" ry="2.5" style="stroke:#1565C0;stroke-width:0.5;" width="135.5684" x="336.5" y="46.4775"/><text fill="#000000" font-family="Microsoft YaHei" font-size="14" lengthAdjust="spacing" textLength="42.082" x="346.5" y="71.291">config</text><text fill="#000000" font-family="Microsoft YaHei" font-size="14" lengthAdjust="spacing" textLength="115.5684" x="346.5" y="89.7686">Redis&#183;AI&#183;Payment</text></g><!--entity ext--><g id="elem_ext"><rect fill="#E3F2FD" height="56.9551" rx="2.5" ry="2.5" style="stroke:#1565C0;stroke-width:0.5;" width="143.5732" x="425.5" y="280.4775"/><text fill="#000000" font-family="Microsoft YaHei" font-size="14" lengthAdjust="spacing" textLength="123.5732" x="435.5" y="305.291">&#22806;&#37096; RestTemplate</text><text fill="#000000" font-family="Microsoft YaHei" font-size="14" lengthAdjust="spacing" textLength="66.001" x="435.5" y="323.7686">crawl.json</text></g><!--link ctl to svc--><g id="link_ctl_svc"><path d="M257.5,103.5275 C257.5,121.5975 257.5,139.1475 257.5,157.2575 " fill="none" id="ctl-to-svc" style="stroke:#181818;stroke-width:1;"/><polygon fill="#181818" points="257.5,163.2575,261.5,154.2575,257.5,158.2575,253.5,154.2575,257.5,163.2575" style="stroke:#181818;stroke-width:1;"/></g><!--link svc to dao--><g id="link_svc_dao"><path d="M210.55,220.5275 C179.64,238.6675 144.4854,259.2919 113.5754,277.4219 " fill="none" id="svc-to-dao" style="stroke:#181818;stroke-width:1;"/><polygon fill="#181818" points="108.4,280.4575,118.1869,279.3544,112.7129,277.9279,114.1394,272.4538,108.4,280.4575" style="stroke:#181818;stroke-width:1;"/></g><!--link svc to ut--><g id="link_svc_ut"><path d="M241.21,220.5275 C230.53,238.5975 219.6542,256.9831 208.9442,275.0931 " fill="none" id="svc-to-ut" style="stroke:#181818;stroke-width:1;"/><polygon fill="#181818" points="205.89,280.2575,213.9143,274.547,208.4352,275.9538,207.0283,270.4747,205.89,280.2575" style="stroke:#181818;stroke-width:1;"/></g><!--link svc to br--><g id="link_svc_br"><path d="M274.03,220.5275 C284.87,238.5975 295.9122,257.0031 306.7822,275.1131 " fill="none" id="svc-to-br" style="stroke:#181818;stroke-width:1;"/><polygon fill="#181818" points="309.87,280.2575,308.6679,270.4823,307.2968,275.9705,301.8086,274.5994,309.87,280.2575" style="stroke:#181818;stroke-width:1;"/></g><!--link svc to ext--><g id="link_svc_ext"><path d="M314.99,220.5275 C352.84,238.6675 396.8087,259.7356 434.6587,277.8656 " fill="none" id="svc-to-ext" style="stroke:#181818;stroke-width:1;"/><polygon fill="#181818" points="440.07,280.4575,433.6811,272.9621,435.5606,278.2976,430.2251,280.1771,440.07,280.4575" style="stroke:#181818;stroke-width:1;"/></g><!--SRC=[NL39IWCn6BxFKuHwhhWVXQejAYXgzI3qaiwaGtGcAKdgWWYMgbHnHN51LDmB7deHHhHwc6SndUd9Lp0pMXmb13xoVyl_HM1X8I3FthjQEu3Ss_4UgtBpqY-zrIjNylpOUpseNwogyMUjBBVM_EAM_tJpMTlG-2mcUSYW3R9GdpKPBH2ZdrgKWPPK8ZWHXe5oi62952LY5De8n4QmpYYdEG6cuI32iGYN8Lr0OggTbZG0-lvx9pjJ7Qc1O4APWTZFQtjtJtT_cxQiQR_ocAxY6BKin39a8fcU1Au3qkba340ET655gHonEQoZW87jl9KXzPiLx-dQTUhx9_vzqNN64meVLZzUJrp7kxppg-lovI1qudDwrCc0D72nOJuVv8uiza61USXKeoYp8B0AakLr-LoIjTt6OJ5a5SIV3WpEgmBnBCE6YJ8aEUKwmsEZG9QF_QjAutJRUta8PLdshteEcwesCZ1tdSIGwup1HHiHyTq-PqRPylQeKQg02SJ595BreL19ONBh3ASabA05eMdgrq0ytXjsLZV4GQicLhiteTgd2PNq2m00]--></g></svg>