<svg xmlns="http://www.w3.org/2000/svg" xmlns:xlink="http://www.w3.org/1999/xlink" contentStyleType="text/css" height="430px" preserveAspectRatio="none" style="width:480px;height:430px;background:#FAFAFA;" version="1.1" viewBox="0 0 480 430" width="480px" zoomAndPan="magnify"><title>&#22270;4.3 &#24322;&#27493;&#25688;&#35201;&#20027;&#35201;&#26102;&#24207;&#22270;&#65288;&#31034;&#24847;&#65289;</title><defs/><g><rect fill="#FAFAFA" height="430" style="stroke:none;stroke-width:1;" width="480" x="0" y="0"/><text fill="#000000" font-family="Microsoft YaHei" font-size="14" font-weight="bold" lengthAdjust="spacing" textLength="221.4365" x="128.521" y="29.8135">&#22270;4.3 &#24322;&#27493;&#25688;&#35201;&#20027;&#35201;&#26102;&#24207;&#22270;&#65288;&#31034;&#24847;&#65289;</text><line style="stroke:#181818;stroke-width:0.5;stroke-dasharray:5.0,5.0;" x1="29" x2="29" y1="122.9551" y2="347.0591"/><line style="stroke:#181818;stroke-width:0.5;stroke-dasharray:5.0,5.0;" x1="227.5132" x2="227.5132" y1="122.9551" y2="347.0591"/><line style="stroke:#181818;stroke-width:0.5;stroke-dasharray:5.0,5.0;" x1="380.4307" x2="380.4307" y1="122.9551" y2="347.0591"/><line style="stroke:#181818;stroke-width:0.5;stroke-dasharray:5.0,5.0;" x1="453.4307" x2="453.4307" y1="122.9551" y2="347.0591"/><text fill="#000000" font-family="Microsoft YaHei" font-size="14" lengthAdjust="spacing" textLength="42" x="5" y="119.291">&#27983;&#35272;&#22120;</text><ellipse cx="29" cy="52.9775" fill="#E2E2F0" rx="8" ry="8" style="stroke:#181818;stroke-width:0.5;"/><path d="M29,60.9775 L29,87.9775 M16,68.9775 L42,68.9775 M29,87.9775 L16,102.9775 M29,87.9775 L42,102.9775 " fill="none" style="stroke:#181818;stroke-width:0.5;"/><text fill="#000000" font-family="Microsoft YaHei" font-size="14" lengthAdjust="spacing" textLength="42" x="5" y="360.8726">&#27983;&#35272;&#22120;</text><ellipse cx="29" cy="373.0366" fill="#E2E2F0" rx="8" ry="8" style="stroke:#181818;stroke-width:0.5;"/><path d="M29,381.0366 L29,408.0366 M16,389.0366 L42,389.0366 M29,408.0366 L16,423.0366 M29,408.0366 L42,423.0366 " fill="none" style="stroke:#181818;stroke-width:0.5;"/><rect fill="#E2E2F0" height="50.9551" rx="2.5" ry="2.5" style="stroke:#181818;stroke-width:0.5;" width="93.6182" x="181.5132" y="71"/><text fill="#000000" font-family="Microsoft YaHei" font-size="14" lengthAdjust="spacing" textLength="79.6182" x="188.5132" y="92.8135">Spring Boot</text><text fill="#000000" font-family="Microsoft YaHei" font-size="14" lengthAdjust="spacing" textLength="64.6816" x="198.0527" y="111.291">Cases API</text><rect fill="#E2E2F0" height="50.9551" rx="2.5" ry="2.5" style="stroke:#181818;stroke-width:0.5;" width="93.6182" x="181.5132" y="346.0591"/><text fill="#000000" font-family="Microsoft YaHei" font-size="14" lengthAdjust="spacing" textLength="79.6182" x="188.5132" y="367.8726">Spring Boot</text><text fill="#000000" font-family="Microsoft YaHei" font-size="14" lengthAdjust="spacing" textLength="64.6816" x="198.0527" y="386.3501">Cases API</text><rect fill="#E2E2F0" height="50.9551" rx="2.5" ry="2.5" style="stroke:#181818;stroke-width:0.5;" width="84" x="338.4307" y="71"/><text fill="#000000" font-family="Microsoft YaHei" font-size="14" lengthAdjust="spacing" textLength="61.6738" x="349.5938" y="92.8135">Redis/DB</text><text fill="#000000" font-family="Microsoft YaHei" font-size="14" lengthAdjust="spacing" textLength="70" x="345.4307" y="111.291">&#37197;&#39069;&#19982;&#20219;&#21153;</text><rect fill="#E2E2F0" height="50.9551" rx="2.5" ry="2.5" style="stroke:#181818;stroke-width:0.5;" width="84" x="338.4307" y="346.0591"/><text fill="#000000" font-family="Microsoft YaHei" font-size="14" lengthAdjust="spacing" textLength="61.6738" x="349.5938" y="367.8726">Redis/DB</text><text fill="#000000" font-family="Microsoft YaHei" font-size="14" lengthAdjust="spacing" textLength="70" x="345.4307" y="386.3501">&#37197;&#39069;&#19982;&#20219;&#21153;</text><rect fill="#E2E2F0" height="32.4775" rx="2.5" ry="2.5" style="stroke:#181818;stroke-width:0.5;" width="42.0479" x="432.4307" y="89.4775"/><text fill="#000000" font-family="Microsoft YaHei" font-size="14" lengthAdjust="spacing" textLength="28.0479" x="439.4307" y="111.291">LLM</text><rect fill="#E2E2F0" height="32.4775" rx="2.5" ry="2.5" style="stroke:#181818;stroke-width:0.5;" width="42.0479" x="432.4307" y="346.0591"/><text fill="#000000" font-family="Microsoft YaHei" font-size="14" lengthAdjust="spacing" textLength="28.0479" x="439.4307" y="367.8726">LLM</text><polygon fill="#181818" points="216.3223,152.1128,226.3223,156.1128,216.3223,160.1128,220.3223,156.1128" style="stroke:#181818;stroke-width:1;"/><line style="stroke:#181818;stroke-width:1;" x1="29" x2="222.3223" y1="156.1128" y2="156.1128"/><text fill="#000000" font-family="Microsoft YaHei" font-size="13" lengthAdjust="spacing" textLength="175.3223" x="36" y="150.7104">summaryAsync/start(caseId)</text><polygon fill="#181818" points="368.4307,183.2705,378.4307,187.2705,368.4307,191.2705,372.4307,187.2705" style="stroke:#181818;stroke-width:1;"/><line style="stroke:#181818;stroke-width:1;" x1="228.3223" x2="374.4307" y1="187.2705" y2="187.2705"/><text fill="#000000" font-family="Microsoft YaHei" font-size="13" lengthAdjust="spacing" textLength="128.1084" x="235.3223" y="181.8682">&#26657;&#39564;&#37197;&#39069;/&#25187;&#20943;/&#20889;&#20219;&#21153;</text><polygon fill="#181818" points="441.4546,214.4282,451.4546,218.4282,441.4546,222.4282,445.4546,218.4282" style="stroke:#181818;stroke-width:1;"/><line style="stroke:#181818;stroke-width:1;" x1="228.3223" x2="447.4546" y1="218.4282" y2="218.4282"/><text fill="#000000" font-family="Microsoft YaHei" font-size="13" lengthAdjust="spacing" textLength="78" x="235.3223" y="213.0259">&#24322;&#27493;&#29983;&#25104;&#25688;&#35201;</text><polygon fill="#181818" points="239.3223,245.5859,229.3223,249.5859,239.3223,253.5859,235.3223,249.5859" style="stroke:#181818;stroke-width:1;"/><line style="stroke:#181818;stroke-width:1;stroke-dasharray:2.0,2.0;" x1="233.3223" x2="452.4546" y1="249.5859" y2="249.5859"/><text fill="#000000" font-family="Microsoft YaHei" font-size="13" lengthAdjust="spacing" textLength="52" x="245.3223" y="244.1836">&#25688;&#35201;&#25991;&#26412;</text><polygon fill="#181818" points="368.4307,293.9014,378.4307,297.9014,368.4307,301.9014,372.4307,297.9014" style="stroke:#181818;stroke-width:1;"/><line style="stroke:#181818;stroke-width:1;" x1="228.3223" x2="374.4307" y1="297.9014" y2="297.9014"/><text fill="#000000" font-family="Microsoft YaHei" font-size="13" lengthAdjust="spacing" textLength="106.2471" x="235.3223" y="275.3413">&#26356;&#26032;&#20219;&#21153;&#29366;&#24577; OK/</text><text fill="#000000" font-family="Microsoft YaHei" font-size="13" lengthAdjust="spacing" textLength="91" x="235.3223" y="292.499">&#22833;&#36133;&#21017;&#22238;&#34917;&#37197;&#39069;</text><polygon fill="#181818" points="40,325.0591,30,329.0591,40,333.0591,36,329.0591" style="stroke:#181818;stroke-width:1;"/><line style="stroke:#181818;stroke-width:1;stroke-dasharray:2.0,2.0;" x1="34" x2="227.3223" y1="329.0591" y2="329.0591"/><text fill="#000000" font-family="Microsoft YaHei" font-size="13" lengthAdjust="spacing" textLength="156.5903" x="46" y="323.6567">&#36718;&#35810; status &#30452;&#33267; done/fail</text><!--SRC=[LP3FBmD15CVl-rUyh0i7zi39GR9BXDWYTPBqCdQtCj7ED3lJWnk2bg0aWgP-bHOHFwEaQSjVqvbkJ_u5qwu3USaxlFbytdVoEEO93qJXQsXW44HZJJwMvS59SBFQhDPLbySVefPJpz-DRAjKa-kvxyQMnfOmII4V9M41EKkBFaqJTvGcg0yzusQd_X2k5qVf11-dX4-Zf0Tw13i-PJJEOHvDU5ZNDEHmfUhoFHVSPaN-JWV4mDAKpx63KuXmqETIFYQBO57AOmH64VCOcBEJNTJyZqOz5pDZp8gHziPk- -giMTrhrkjYkzY5e_zXsuvqnxQcMT0_0YOC0qidayXVDjaoSGp65TxhgC19jqypEqnKCVAosBxV2GCCkNKjCZb3RER3e12p5HPUj7Lu8RFxuLqr6_f_SyA1FCh8quS_cmiLUVGIBcfjVyYLLPYPCc94b5w3Ibbayw9m7XJBONH7KvwblE3pANY-0lLVdcRGAbI2p1kub7X67E743m00]--></g></svg>