<svg xmlns="http://www.w3.org/2000/svg" xmlns:xlink="http://www.w3.org/1999/xlink" contentStyleType="text/css" height="502px" preserveAspectRatio="none" style="width:286px;height:502px;background:#FAFAFA;" version="1.1" viewBox="0 0 286 502" width="286px" zoomAndPan="magnify"><title>&#22270;3.3 &#26696;&#20363;&#26816;&#32034;&#27963;&#21160;&#22270;</title><defs/><g><rect fill="#FAFAFA" height="502" style="stroke:none;stroke-width:1;" width="286" x="0" y="0"/><text fill="#000000" font-family="Microsoft YaHei" font-size="14" font-weight="bold" lengthAdjust="spacing" textLength="137.4365" x="72.7817" y="34.8135">&#22270;3.3 &#26696;&#20363;&#26816;&#32034;&#27963;&#21160;&#22270;</text><ellipse cx="140" cy="59.4775" fill="#222222" rx="10" ry="10" style="stroke:#222222;stroke-width:1;"/><rect fill="#F1F1F1" height="35.8379" rx="12.5" ry="12.5" style="stroke:#181818;stroke-width:0.5;" width="138.2539" x="70.873" y="89.4775"/><text fill="#000000" font-family="Microsoft YaHei" font-size="12" lengthAdjust="spacing" textLength="118.2539" x="80.873" y="112.1748">&#36755;&#20837;&#20851;&#38190;&#35789;/&#27861;&#22495;/&#26102;&#38388;</text><polygon fill="#F1F1F1" points="112.3792,145.3154,167.6208,145.3154,179.6208,159.8335,167.6208,174.3516,112.3792,174.3516,100.3792,159.8335,112.3792,145.3154" style="stroke:#181818;stroke-width:0.5;"/><text fill="#000000" font-family="Microsoft YaHei" font-size="11" lengthAdjust="spacing" textLength="55.2417" x="112.3792" y="156.9546">Redis ZSet</text><text fill="#000000" font-family="Microsoft YaHei" font-size="11" lengthAdjust="spacing" textLength="49.312" x="112.3792" y="171.4727">&#32531;&#23384;&#21629;&#20013;?</text><text fill="#000000" font-family="Microsoft YaHei" font-size="11" lengthAdjust="spacing" textLength="11" x="89.3792" y="156.9546">&#26159;</text><text fill="#000000" font-family="Microsoft YaHei" font-size="11" lengthAdjust="spacing" textLength="11" x="179.6208" y="156.9546">&#21542;</text><rect fill="#F1F1F1" height="35.8379" rx="12.5" ry="12.5" style="stroke:#181818;stroke-width:0.5;" width="116" x="11" y="184.3516"/><text fill="#000000" font-family="Microsoft YaHei" font-size="12" lengthAdjust="spacing" textLength="96" x="21" y="207.0488">&#25353;&#26102;&#38388;&#20998;&#39029;&#21462;&#26696;&#21495;</text><rect fill="#F1F1F1" height="51.6758" rx="12.5" ry="12.5" style="stroke:#181818;stroke-width:0.5;" width="116" x="153" y="184.3516"/><text fill="#000000" font-family="Microsoft YaHei" font-size="12" lengthAdjust="spacing" textLength="96" x="163" y="207.0488">&#24182;&#34892;&#35831;&#27714;&#21508;&#25968;&#25454;&#28304;</text><text fill="#000000" font-family="Microsoft YaHei" font-size="12" lengthAdjust="spacing" textLength="56.5723" x="163" y="222.8867">crawl.json</text><rect fill="#F1F1F1" height="35.8379" rx="12.5" ry="12.5" style="stroke:#181818;stroke-width:0.5;" width="128" x="147" y="256.0273"/><text fill="#000000" font-family="Microsoft YaHei" font-size="12" lengthAdjust="spacing" textLength="108" x="157" y="278.7246">&#36229;&#26102;&#21512;&#24182;&#24050;&#36820;&#22238;&#26469;&#28304;</text><rect fill="#F1F1F1" height="35.8379" rx="12.5" ry="12.5" style="stroke:#181818;stroke-width:0.5;" width="116.9551" x="152.5225" y="311.8652"/><text fill="#000000" font-family="Microsoft YaHei" font-size="12" lengthAdjust="spacing" textLength="96.9551" x="162.5225" y="334.5625">&#24402;&#24182;&#20837;&#24211;(MySQL)</text><polygon fill="#F1F1F1" points="140,353.7031,152,365.7031,140,377.7031,128,365.7031,140,353.7031" style="stroke:#181818;stroke-width:0.5;"/><rect fill="#F1F1F1" height="51.6758" rx="12.5" ry="12.5" style="stroke:#181818;stroke-width:0.5;" width="127.5664" x="76.2168" y="397.7031"/><text fill="#000000" font-family="Microsoft YaHei" font-size="12" lengthAdjust="spacing" textLength="84" x="86.2168" y="420.4004">&#36820;&#22238;&#21015;&#34920;&#32473;&#29992;&#25143;</text><text fill="#000000" font-family="Microsoft YaHei" font-size="12" lengthAdjust="spacing" textLength="107.5664" x="86.2168" y="436.2383">(&#21487;&#36873; SSE &#28176;&#36827;&#25512;&#36865;)</text><ellipse cx="140" cy="480.3789" fill="none" rx="11" ry="11" style="stroke:#222222;stroke-width:1;"/><ellipse cx="140" cy="480.3789" fill="#222222" rx="6" ry="6" style="stroke:#222222;stroke-width:1;"/><line style="stroke:#181818;stroke-width:1;" x1="140" x2="140" y1="69.4775" y2="89.4775"/><polygon fill="#181818" points="136,79.4775,140,89.4775,144,79.4775,140,83.4775" style="stroke:#181818;stroke-width:1;"/><line style="stroke:#181818;stroke-width:1;" x1="211" x2="211" y1="236.0273" y2="256.0273"/><polygon fill="#181818" points="207,246.0273,211,256.0273,215,246.0273,211,250.0273" style="stroke:#181818;stroke-width:1;"/><line style="stroke:#181818;stroke-width:1;" x1="211" x2="211" y1="291.8652" y2="311.8652"/><polygon fill="#181818" points="207,301.8652,211,311.8652,215,301.8652,211,305.8652" style="stroke:#181818;stroke-width:1;"/><line style="stroke:#181818;stroke-width:1;" x1="100.3792" x2="69" y1="159.8335" y2="159.8335"/><line style="stroke:#181818;stroke-width:1;" x1="69" x2="69" y1="159.8335" y2="184.3516"/><polygon fill="#181818" points="65,174.3516,69,184.3516,73,174.3516,69,178.3516" style="stroke:#181818;stroke-width:1;"/><line style="stroke:#181818;stroke-width:1;" x1="179.6208" x2="211" y1="159.8335" y2="159.8335"/><line style="stroke:#181818;stroke-width:1;" x1="211" x2="211" y1="159.8335" y2="184.3516"/><polygon fill="#181818" points="207,174.3516,211,184.3516,215,174.3516,211,178.3516" style="stroke:#181818;stroke-width:1;"/><line style="stroke:#181818;stroke-width:1;" x1="69" x2="69" y1="220.1895" y2="365.7031"/><line style="stroke:#181818;stroke-width:1;" x1="69" x2="128" y1="365.7031" y2="365.7031"/><polygon fill="#181818" points="118,361.7031,128,365.7031,118,369.7031,122,365.7031" style="stroke:#181818;stroke-width:1;"/><line style="stroke:#181818;stroke-width:1;" x1="211" x2="211" y1="347.7031" y2="365.7031"/><line style="stroke:#181818;stroke-width:1;" x1="211" x2="152" y1="365.7031" y2="365.7031"/><polygon fill="#181818" points="162,361.7031,152,365.7031,162,369.7031,158,365.7031" style="stroke:#181818;stroke-width:1;"/><line style="stroke:#181818;stroke-width:1;" x1="140" x2="140" y1="125.3154" y2="145.3154"/><polygon fill="#181818" points="136,135.3154,140,145.3154,144,135.3154,140,139.3154" style="stroke:#181818;stroke-width:1;"/><line style="stroke:#181818;stroke-width:1;" x1="140" x2="140" y1="377.7031" y2="397.7031"/><polygon fill="#181818" points="136,387.7031,140,397.7031,144,387.7031,140,391.7031" style="stroke:#181818;stroke-width:1;"/><line style="stroke:#181818;stroke-width:1;" x1="140" x2="140" y1="449.3789" y2="469.3789"/><polygon fill="#181818" points="136,459.3789,140,469.3789,144,459.3789,140,463.3789" style="stroke:#181818;stroke-width:1;"/><!--SRC=[JO-nJi9G58RtFiMDBcM1WGq6Oup4GKoKISDIuQALSalQIumR6Z55GQg0O8WID1WMG0K1GU1bE9VsBRpWOixuVVyvvwSoLJ22oiJjT2DMCsQJ6_QQd7TVM7S4rmqE13qgaxYaIJ5qA8MYHvgQ8E4DLL4rjEfRNym_8umZKaAXFfNG7Ic6qOfV3ccghaOesfUsiBmY23gLD2fuh4aUKdL8TUn2osfdNQnJX6hLnKezkzJr2d84YNiuBEle881faCn_yj0imzruDcYkEH0znWI9hDns20XvM2RzbmFZogvzGUw1Du5StojWHST81FDjwS5tpwfbh7QVVLo0UScAxopROaCpI4AQTAeuJtILU1UYrKlnXM0QF07zJsjQWCepUwfpTybXVByW_FzXNlIV1NQt7VmM2SiHNcmfWr6oQetvw75UQ32Z7oGYvDfsCeq2WKt41gOrhR3RXfqyvq6Tgl5V]--></g></svg>