<svg xmlns="http://www.w3.org/2000/svg" xmlns:xlink="http://www.w3.org/1999/xlink" contentStyleType="text/css" height="491px" preserveAspectRatio="none" style="width:371px;height:491px;background:#FAFAFA;" version="1.1" viewBox="0 0 371 491" width="371px" zoomAndPan="magnify"><title>&#22270;3.2 &#31995;&#32479;&#29992;&#20363;&#22270;</title><defs/><g><rect fill="#FAFAFA" height="491" style="stroke:none;stroke-width:1;" width="371" x="0" y="0"/><text fill="#000000" font-family="Microsoft YaHei" font-size="14" font-weight="bold" lengthAdjust="spacing" textLength="109.4365" x="123.7817" y="24.8135">&#22270;3.2 &#31995;&#32479;&#29992;&#20363;&#22270;</text><!--cluster sys--><g id="cluster_sys"><rect fill="none" height="435" rx="2.5" ry="2.5" style="stroke:#181818;stroke-width:1;" width="198" x="167" y="46.4775"/><text fill="#000000" font-family="Microsoft YaHei" font-size="14" font-weight="bold" lengthAdjust="spacing" textLength="182" x="175" y="63.291">&#28041;&#22806;&#27861;&#24459;&#30693;&#35782;&#26597;&#35810;&#19982;&#38382;&#31572;&#31995;&#32479;</text></g><g id="elem_UC1"><ellipse cx="266.0269" cy="100.2995" fill="#F1F1F1" rx="52.0269" ry="16.322" style="stroke:#181818;stroke-width:0.5;"/><text fill="#000000" font-family="Microsoft YaHei" font-size="14" lengthAdjust="spacing" textLength="56" x="235.0269" y="104.9563">&#26696;&#20363;&#26816;&#32034;</text></g><g id="elem_UC2"><ellipse cx="266.0269" cy="168.2995" fill="#F1F1F1" rx="52.0269" ry="16.322" style="stroke:#181818;stroke-width:0.5;"/><text fill="#000000" font-family="Microsoft YaHei" font-size="14" lengthAdjust="spacing" textLength="56" x="235.0269" y="172.9563">&#38405;&#35835;&#21407;&#25991;</text></g><g id="elem_UC3"><ellipse cx="265.9227" cy="238.3621" fill="#F1F1F1" rx="79.9227" ry="18.3845" style="stroke:#181818;stroke-width:0.5;"/><text fill="#000000" font-family="Microsoft YaHei" font-size="14" lengthAdjust="spacing" textLength="108.0898" x="208.8777" y="243.0188">AI &#25688;&#35201;/&#26696;&#24773;&#38382;&#31572;</text></g><g id="elem_UC4"><ellipse cx="265.9704" cy="309.5716" fill="#F1F1F1" rx="73.4704" ry="17.0941" style="stroke:#181818;stroke-width:0.5;"/><text fill="#000000" font-family="Microsoft YaHei" font-size="14" lengthAdjust="spacing" textLength="89.9814" x="217.9797" y="314.2284">&#25910;&#34255;/&#27983;&#35272;&#21382;&#21490;</text></g><g id="elem_UC5"><ellipse cx="266.0131" cy="378.388" fill="#F1F1F1" rx="62.5131" ry="16.4104" style="stroke:#181818;stroke-width:0.5;"/><text fill="#000000" font-family="Microsoft YaHei" font-size="14" lengthAdjust="spacing" textLength="70" x="228.0131" y="383.0447">&#30693;&#35782;&#24211;&#38382;&#31572;</text></g><g id="elem_UC6"><ellipse cx="266.0402" cy="447.4856" fill="#F1F1F1" rx="75.5402" ry="17.508" style="stroke:#181818;stroke-width:0.5;"/><text fill="#000000" font-family="Microsoft YaHei" font-size="14" lengthAdjust="spacing" textLength="95.9629" x="215.0588" y="452.1423">&#35745;&#36153;/&#37197;&#39069;/&#20805;&#20540;</text></g><!--entity G--><g id="elem_G"><ellipse cx="34" cy="69.9775" fill="#F1F1F1" rx="8" ry="8" style="stroke:#181818;stroke-width:0.5;"/><path d="M34,77.9775 L34,104.9775 M21,85.9775 L47,85.9775 M34,104.9775 L21,119.9775 M34,104.9775 L47,119.9775 " fill="none" style="stroke:#181818;stroke-width:0.5;"/><text fill="#000000" font-family="Microsoft YaHei" font-size="14" lengthAdjust="spacing" textLength="28" x="20" y="136.291">&#28216;&#23458;</text></g><!--entity U--><g id="elem_U"><ellipse cx="34" cy="254.9775" fill="#F1F1F1" rx="8" ry="8" style="stroke:#181818;stroke-width:0.5;"/><path d="M34,262.9775 L34,289.9775 M21,270.9775 L47,270.9775 M34,289.9775 L21,304.9775 M34,289.9775 L47,304.9775 " fill="none" style="stroke:#181818;stroke-width:0.5;"/><text fill="#000000" font-family="Microsoft YaHei" font-size="14" lengthAdjust="spacing" textLength="56" x="6" y="321.291">&#27880;&#20876;&#29992;&#25143;</text></g><!--entity A--><g id="elem_A"><ellipse cx="34" cy="416.9775" fill="#F1F1F1" rx="8" ry="8" style="stroke:#181818;stroke-width:0.5;"/><path d="M34,424.9775 L34,451.9775 M21,432.9775 L47,432.9775 M34,451.9775 L21,466.9775 M34,451.9775 L47,466.9775 " fill="none" style="stroke:#181818;stroke-width:0.5;"/><text fill="#000000" font-family="Microsoft YaHei" font-size="14" lengthAdjust="spacing" textLength="42" x="13" y="483.291">&#31649;&#29702;&#21592;</text></g><!--link G to UC1--><g id="link_G_UC1"><path d="M48.02,100.4775 C79.29,100.4775 153.96,100.4775 207.64,100.4775 " fill="none" id="G-to-UC1" style="stroke:#181818;stroke-width:1;"/><polygon fill="#181818" points="213.64,100.4775,204.64,96.4775,208.64,100.4775,204.64,104.4775,213.64,100.4775" style="stroke:#181818;stroke-width:1;"/><text fill="#000000" font-family="Microsoft YaHei" font-size="13" lengthAdjust="spacing" textLength="56.9575" x="93.5" y="79.2329">&#171;extend&#187;</text><text fill="#000000" font-family="Microsoft YaHei" font-size="13" lengthAdjust="spacing" textLength="26" x="108.9788" y="96.3906">&#21463;&#38480;</text></g><!--link U to UC1--><g id="link_U_UC1"><path d="M56.36,246.3975 C77.65,211.3575 113.66,161.4375 159,134.4775 C178.35,122.9675 196.2451,116.453 216.3251,111.063 " fill="none" id="U-to-UC1" style="stroke:#181818;stroke-width:1;"/><polygon fill="#181818" points="222.12,109.5075,212.3907,107.9775,217.2909,110.8038,214.4647,115.704,222.12,109.5075" style="stroke:#181818;stroke-width:1;"/></g><!--link U to UC2--><g id="link_U_UC2"><path d="M62.01,263.4775 C71.32,256.2075 81.94,248.2475 92,241.4775 C120.59,222.2475 127.52,216.4875 159,202.4775 C180.36,192.9675 199.4506,186.5396 219.7206,180.6196 " fill="none" id="U-to-UC2" style="stroke:#181818;stroke-width:1;"/><polygon fill="#181818" points="225.48,178.9375,215.7195,177.6211,220.6805,180.3393,217.9623,185.3002,225.48,178.9375" style="stroke:#181818;stroke-width:1;"/></g><!--link U to UC3--><g id="link_U_UC3"><path d="M62.29,279.8975 C97.39,272.7275 153.4615,261.2687 199.6615,251.8287 " fill="none" id="U-to-UC3" style="stroke:#181818;stroke-width:1;"/><polygon fill="#181818" points="205.54,250.6275,195.9214,248.5102,200.6412,251.6285,197.523,256.3483,205.54,250.6275" style="stroke:#181818;stroke-width:1;"/></g><!--link U to UC4--><g id="link_U_UC4"><path d="M62.29,288.3275 C95.61,291.7975 147.1425,297.174 192.4125,301.904 " fill="none" id="U-to-UC4" style="stroke:#181818;stroke-width:1;"/><polygon fill="#181818" points="198.38,302.5275,189.8444,297.6139,193.4071,302.0079,189.0131,305.5706,198.38,302.5275" style="stroke:#181818;stroke-width:1;"/></g><!--link U to UC5--><g id="link_U_UC5"><path d="M62.17,299.3275 C87.02,311.7175 124.99,329.9575 159,343.4775 C180.16,351.8875 198.5086,358.1403 218.3586,364.4103 " fill="none" id="U-to-UC5" style="stroke:#181818;stroke-width:1;"/><polygon fill="#181818" points="224.08,366.2175,216.7028,359.6925,219.3122,364.7115,214.2932,367.321,224.08,366.2175" style="stroke:#181818;stroke-width:1;"/></g><!--link U to UC6--><g id="link_U_UC6"><path d="M62.22,322.1775 C85.12,350.6175 120.25,389.0075 159,412.4775 C175.25,422.3175 188.8544,427.986 206.5344,433.416 " fill="none" id="U-to-UC6" style="stroke:#181818;stroke-width:1;"/><polygon fill="#181818" points="212.27,435.1775,204.841,428.7115,207.4903,433.7096,202.4923,436.3589,212.27,435.1775" style="stroke:#181818;stroke-width:1;"/></g><!--link A to UC6--><g id="link_A_UC6"><path d="M55.01,447.4775 C84.95,447.4775 136.99,447.4775 184.47,447.4775 " fill="none" id="A-to-UC6" style="stroke:#181818;stroke-width:1;"/><polygon fill="#181818" points="190.47,447.4775,181.47,443.4775,185.47,447.4775,181.47,451.4775,190.47,447.4775" style="stroke:#181818;stroke-width:1;"/><text fill="#000000" font-family="Microsoft YaHei" font-size="13" lengthAdjust="spacing" textLength="57.5542" x="93" y="443.2329">&#35843;&#36134;/&#35266;&#27979;</text></g><!--SRC=[LP7BIiD058RtynI7kDPWgov42aNmij2T2y7Dc8urM1D9fg28u8NKIhMjM6r5fBHUDrQnLQkLFeqpcRo5YMb3P63uEFy_vpPKfIa2xAeR7Og0tUpOdQfTUlpfvjmGCjTKRGCRU1sMiRAMDFIqbfZKKxe10rDnxuGS2RA2qoawfMjq7gyJaEPKnT1DVON28fuXgeHIn6MgWw4cLoaaL8CeLDKrX3p0MjBjG-BlH-psWZVFMJTdL-_4SuPxT_sddNVA3VkfvBSe0JR1t39X6m6aJQ9WqtjSoxgDyvjTkrN_SonC3eTrfsA9vmxBL_d5OK-FXFNuBF3JYhZVazrC_C3oA_QSqN-LIk-YN93vMq4yP5a-mmglFTj8sEPFmBxE_cKQ3Lj4eoPQdx9ZdJZrQvbP5jlzxld6q0v2MA7kkYNURhE6FzHq46i-iion-riy- -4_wIjsesONC-oqyXUE8pGDWuCnRnqm3XCJP9CIBH6BBMciK7OkYsYXBmSK2IWQq4X0em6DeNYVtDJYvK2qxcNniC_VShy0]--></g></svg>