<svg xmlns="http://www.w3.org/2000/svg" xmlns:xlink="http://www.w3.org/1999/xlink" contentStyleType="text/css" height="857px" preserveAspectRatio="none" style="width:807px;height:857px;background:#FAFAFA;" version="1.1" viewBox="0 0 807 857" width="807px" zoomAndPan="magnify"><title>&#22270;4.1 &#31995;&#32479;&#24635;&#20307;&#26550;&#26500;&#22270;</title><defs/><g><rect fill="#FAFAFA" height="857" style="stroke:none;stroke-width:1;" width="807" x="0" y="0"/><text fill="#000000" font-family="Microsoft YaHei" font-size="14" font-weight="bold" lengthAdjust="spacing" textLength="137.4365" x="327.9512" y="24.8135">&#22270;4.1 &#31995;&#32479;&#24635;&#20307;&#26550;&#26500;&#22270;</text><!--cluster ???--><g id="cluster_&#23458;&#25143;&#31471;"><path d="M121.5,45.6416 L164.5,45.6416 A3.75,3.75 0 0 1 167,48.1416 L174,70.1191 L308.5,70.1191 A2.5,2.5 0 0 1 311,72.6191 L311,153.1416 A2.5,2.5 0 0 1 308.5,155.6416 L121.5,155.6416 A2.5,2.5 0 0 1 119,153.1416 L119,48.1416 A2.5,2.5 0 0 1 121.5,45.6416 " fill="none" style="stroke:#000000;stroke-width:1.5;"/><line style="stroke:#000000;stroke-width:1.5;" x1="119" x2="174" y1="70.1191" y2="70.1191"/><text fill="#000000" font-family="Microsoft YaHei" font-size="14" font-weight="bold" lengthAdjust="spacing" textLength="42" x="123" y="62.4551">&#23458;&#25143;&#31471;</text></g><!--cluster ???(??)--><g id="cluster_&#25509;&#20837;&#23618;(&#21487;&#36873;)"><path d="M8.5,206.6416 L90.4102,206.6416 A3.75,3.75 0 0 1 92.9102,209.1416 L99.9102,231.1191 L165.5,231.1191 A2.5,2.5 0 0 1 168,233.6191 L168,295.1416 A2.5,2.5 0 0 1 165.5,297.6416 L8.5,297.6416 A2.5,2.5 0 0 1 6,295.1416 L6,209.1416 A2.5,2.5 0 0 1 8.5,206.6416 " fill="none" style="stroke:#000000;stroke-width:1.5;"/><line style="stroke:#000000;stroke-width:1.5;" x1="6" x2="99.9102" y1="231.1191" y2="231.1191"/><text fill="#000000" font-family="Microsoft YaHei" font-size="14" font-weight="bold" lengthAdjust="spacing" textLength="80.9102" x="10" y="223.4551">&#25509;&#20837;&#23618;(&#21487;&#36873;)</text></g><!--cluster ???--><g id="cluster_&#24212;&#29992;&#23618;"><path d="M99.5,330.6416 L142.5,330.6416 A3.75,3.75 0 0 1 145,333.1416 L152,355.1191 L256.5,355.1191 A2.5,2.5 0 0 1 259,357.6191 L259,730.6416 A2.5,2.5 0 0 1 256.5,733.1416 L99.5,733.1416 A2.5,2.5 0 0 1 97,730.6416 L97,333.1416 A2.5,2.5 0 0 1 99.5,330.6416 " fill="none" style="stroke:#000000;stroke-width:1.5;"/><line style="stroke:#000000;stroke-width:1.5;" x1="97" x2="152" y1="355.1191" y2="355.1191"/><text fill="#000000" font-family="Microsoft YaHei" font-size="14" font-weight="bold" lengthAdjust="spacing" textLength="42" x="101" y="347.4551">&#24212;&#29992;&#23618;</text></g><!--entity web--><g id="elem_web"><rect fill="#F1F1F1" height="56.9551" rx="2.5" ry="2.5" style="stroke:#181818;stroke-width:0.5;" width="158.7285" x="135.5" y="82.6416"/><text fill="#000000" font-family="Microsoft YaHei" font-size="14" lengthAdjust="spacing" textLength="42" x="145.5" y="107.4551">&#27983;&#35272;&#22120;</text><text fill="#000000" font-family="Microsoft YaHei" font-size="14" lengthAdjust="spacing" textLength="138.7285" x="145.5" y="125.9326">Vue3 + Element Plus</text></g><!--entity nginx--><g id="elem_nginx"><rect fill="#F1F1F1" height="38.4775" rx="2.5" ry="2.5" style="stroke:#181818;stroke-width:0.5;" width="129.4844" x="22.5" y="243.6416"/><text fill="#000000" font-family="Microsoft YaHei" font-size="14" lengthAdjust="spacing" textLength="109.4844" x="32.5" y="268.4551">Nginx / TLS &#32456;&#27490;</text></g><!--entity api--><g id="elem_api"><rect fill="#F1F1F1" height="38.4775" rx="2.5" ry="2.5" style="stroke:#181818;stroke-width:0.5;" width="130.1475" x="113" y="367.6416"/><text fill="#000000" font-family="Microsoft YaHei" font-size="14" lengthAdjust="spacing" textLength="110.1475" x="123" y="392.4551">Spring Boot /api</text></g><!--entity ctl--><g id="elem_ctl"><rect fill="#F1F1F1" height="38.4775" rx="2.5" ry="2.5" style="stroke:#181818;stroke-width:0.5;" width="125.2188" x="116.5" y="466.6416"/><text fill="#000000" font-family="Microsoft YaHei" font-size="14" lengthAdjust="spacing" textLength="105.2188" x="126.5" y="491.4551">Controller / SSE</text></g><!--entity svc--><g id="elem_svc"><rect fill="#F1F1F1" height="38.4775" rx="2.5" ry="2.5" style="stroke:#181818;stroke-width:0.5;" width="99.5498" x="143" y="565.6416"/><text fill="#000000" font-family="Microsoft YaHei" font-size="14" lengthAdjust="spacing" textLength="79.5498" x="153" y="590.4551">Service &#32534;&#25490;</text></g><!--entity dao--><g id="elem_dao"><rect fill="#F1F1F1" height="38.4775" rx="2.5" ry="2.5" style="stroke:#181818;stroke-width:0.5;" width="123.626" x="116" y="679.1416"/><text fill="#000000" font-family="Microsoft YaHei" font-size="14" lengthAdjust="spacing" textLength="103.626" x="126" y="703.9551">DAO + MyBatis</text></g><!--entity db--><g id="elem_db"><path d="M144,802.6416 C144,792.6416 177.8813,792.6416 177.8813,792.6416 C177.8813,792.6416 211.7627,792.6416 211.7627,802.6416 L211.7627,830.1191 C211.7627,840.1191 177.8813,840.1191 177.8813,840.1191 C177.8813,840.1191 144,840.1191 144,830.1191 L144,802.6416 " fill="#F1F1F1" style="stroke:#181818;stroke-width:0.5;"/><path d="M144,802.6416 C144,812.6416 177.8813,812.6416 177.8813,812.6416 C177.8813,812.6416 211.7627,812.6416 211.7627,802.6416 " fill="none" style="stroke:#181818;stroke-width:0.5;"/><text fill="#000000" font-family="Microsoft YaHei" font-size="14" lengthAdjust="spacing" textLength="47.7627" x="154" y="831.4551">MySQL</text></g><!--entity redis--><g id="elem_redis"><path d="M275,675.1416 C275,665.1416 326.9419,665.1416 326.9419,665.1416 C326.9419,665.1416 378.8838,665.1416 378.8838,675.1416 L378.8838,721.0967 C378.8838,731.0967 326.9419,731.0967 326.9419,731.0967 C326.9419,731.0967 275,731.0967 275,721.0967 L275,675.1416 " fill="#F1F1F1" style="stroke:#181818;stroke-width:0.5;"/><path d="M275,675.1416 C275,685.1416 326.9419,685.1416 326.9419,685.1416 C326.9419,685.1416 378.8838,685.1416 378.8838,675.1416 " fill="none" style="stroke:#181818;stroke-width:0.5;"/><text fill="#000000" font-family="Microsoft YaHei" font-size="14" lengthAdjust="spacing" textLength="36.2441" x="285" y="703.9551">Redis</text><text fill="#000000" font-family="Microsoft YaHei" font-size="14" lengthAdjust="spacing" textLength="83.8838" x="285" y="722.4326">ZSet/&#38145;/&#37197;&#39069;</text></g><!--entity crawl--><g id="elem_crawl"><path d="M423.6801,674.1407 C426.6401,668.9575 432.4326,668.3943 435.5723,673.9416 C438.2891,668.1704 442.6605,666.8644 447.0828,672.1692 C452.0216,666.9049 456.2016,665.8076 460.4906,672.8757 C463.1848,667.3052 466.7158,666.1552 471.3421,670.829 C475.4556,665.0432 481.3467,665.6442 484.7527,671.6347 C487.5088,665.826 493.506,664.321 497.3859,670.4448 C501.4887,665.8214 505.8643,665.5877 509.4417,671.0715 C514.1907,665.6348 518.7394,665.3803 521.9836,672.5667 C524.9594,667.4411 529.2065,666.8578 532.3632,672.3904 C537.6087,666.8993 541.8766,667.0686 546.4187,673.2383 C552.0574,676.4678 553.1844,682.898 547.1506,686.7593 C555.1495,688.0646 556.3474,693.2038 551.5655,699.0864 C555.9292,705.0814 555.7501,709.7039 548.0394,712.5326 C553.6822,717.5783 551.8525,721.1301 546.0875,724.2803 C542.7355,730.1877 537.7335,730.8025 533.2714,725.5559 C529.2336,731.2249 525.1595,729.7664 521.9901,724.6479 C518.1281,730.9982 512.7937,731.1501 508.5286,725.0849 C504.8828,730.8507 501.1847,731.115 497.0466,725.5853 C493.3391,732.6067 489.3968,731.5491 484.54,726.8072 C479.8595,733.4665 475.9643,732.7535 471.6111,726.48 C467.2235,731.9763 462.8704,730.928 460.3654,724.6777 C456.2545,730.9137 452.2199,730.9712 448.0321,724.7539 C445.0728,731.3831 439.7582,730.1041 436.1166,725.476 C432.0003,732.5871 426.3098,731.6069 422.3878,725.2775 C414.7357,723.5641 413.8809,718.5922 418.1977,712.845 C411.9863,710.8049 410.3747,705.1257 414.7568,700.2024 C409.3732,693.8995 411.5617,687.7908 419.6244,686.1433 C415.8534,680.7599 417.4015,676.1282 423.6801,674.1407 " fill="#F1F1F1" style="stroke:#181818;stroke-width:0.5;"/><text fill="#000000" font-family="Microsoft YaHei" font-size="14" lengthAdjust="spacing" textLength="67.5869" x="429" y="694.4551">&#22806;&#37096; HTTP</text><text fill="#000000" font-family="Microsoft YaHei" font-size="14" lengthAdjust="spacing" textLength="108.2676" x="429" y="712.9326">crawl.json / &#26725;&#25509;</text></g><!--entity llm--><g id="elem_llm"><path d="M596.8071,672.886 C600.9554,666.5287 605.9102,667.0011 609.8274,673.127 C613.3024,667.236 618.3524,668.2774 621.8547,673.0962 C625.3252,667.7309 631.1429,667.348 634.9181,672.7256 C636.503,666.1259 642.1648,665.9164 645.956,670.5594 C649.771,664.343 656.0535,664.9283 659.1526,671.3095 C662.3718,665.6207 668.3398,665.2216 671.4798,671.3919 C674.7481,665.831 680.4749,666.2656 683.1015,672.0491 C687.9842,666.2317 692.1429,667.0126 696.5235,672.6381 C700.1768,665.557 706.4917,667.1282 709.7491,673.041 C713.1266,667.8298 719.3771,666.8465 722.1111,673.7004 C727.4066,677.021 728.3405,682.7132 722.1744,686.0924 C730.1618,688.8841 729.8437,694.3516 725.1278,699.8669 C730.9739,705.3355 729.7038,710.3131 721.927,712.2645 C727.3247,715.7947 726.7733,720.6671 721.332,723.6299 C718.0138,730.014 713.553,730.8221 709.2177,724.6079 C705.7538,730.7596 701.4652,732.4534 696.5205,726.1131 C693.7565,731.9284 687.6753,733.3239 684.1884,726.8377 C681.2811,734.388 676.5914,733.6219 671.4155,729.273 C667.1787,735.7346 662.8994,735.6837 658.6126,729.323 C654.1593,734.0877 649.9977,733.5518 646.5252,728.1561 C642.9604,733.9537 639.0451,733.8852 635.1324,728.5109 C629.3075,733.928 625.1742,732.4145 622.1721,725.5356 C617.6722,732.2671 613.5032,731.822 608.8059,725.7417 C604.4546,730.202 600.3386,730.1165 597.2336,724.3337 C591.5493,721.5342 591.1477,715.8788 596.649,712.5256 C589.5045,709.6123 589.0712,702.922 594.5855,698.1869 C588.5145,693.9472 588.2617,689.521 594.7435,685.4368 C590.3237,680.2569 589.8249,676.1911 596.8071,672.886 " fill="#F1F1F1" style="stroke:#181818;stroke-width:0.5;"/><text fill="#000000" font-family="Microsoft YaHei" font-size="14" lengthAdjust="spacing" textLength="28.0479" x="602.5" y="694.4551">LLM</text><text fill="#000000" font-family="Microsoft YaHei" font-size="14" lengthAdjust="spacing" textLength="111.0293" x="602.5" y="712.9326">OpenAI &#20860;&#23481;&#31471;&#28857;</text></g><g id="elem_GMN25"><path d="M516,802.6416 L516,829.7993 A0,0 0 0 0 516,829.7993 L800.3389,829.7993 A0,0 0 0 0 800.3389,829.7993 L800.3389,812.6416 L790.3389,802.6416 L662,802.6416 L658,731.7616 L654,802.6416 L516,802.6416 A0,0 0 0 0 516,802.6416 " fill="#FEFFDD" style="stroke:#181818;stroke-width:0.5;"/><path d="M790.3389,802.6416 L790.3389,812.6416 L800.3389,812.6416 L790.3389,802.6416 " fill="#FEFFDD" style="stroke:#181818;stroke-width:0.5;"/><text fill="#000000" font-family="Microsoft YaHei" font-size="13" lengthAdjust="spacing" textLength="263.3389" x="522" y="821.397">&#30693;&#35782;&#24211;&#65306;JVM &#20869;&#20999;&#29255;+\n&#21521;&#37327;&#26816;&#32034;+RAG &#35843;&#29992;</text></g><!--link web to nginx--><g id="link_web_nginx"><path d="M184.88,139.6916 C174.72,149.4516 163.55,160.7316 154,171.6416 C133.35,195.2416 115.5766,219.8125 102.7066,238.4725 " fill="none" id="web-to-nginx" style="stroke:#181818;stroke-width:1;"/><polygon fill="#181818" points="99.3,243.4116,107.7026,238.2739,102.1388,239.2956,101.1171,233.7318,99.3,243.4116" style="stroke:#181818;stroke-width:1;"/><text fill="#000000" font-family="Microsoft YaHei" font-size="13" lengthAdjust="spacing" textLength="40.4155" x="155" y="186.397">HTTPS</text></g><!--link nginx to api--><g id="link_nginx_api"><path d="M100.43,281.6416 C117.63,304.7116 143.7027,339.6521 160.9327,362.7521 " fill="none" id="nginx-to-api" style="stroke:#181818;stroke-width:1;"/><polygon fill="#181818" points="164.52,367.5616,162.3453,357.9558,161.5306,363.5537,155.9327,362.7389,164.52,367.5616" style="stroke:#181818;stroke-width:1;"/></g><!--link web to api--><g id="link_web_api"><path d="M211.25,139.8716 C203.68,195.8216 187.5645,314.9258 181.2445,361.6358 " fill="none" id="web-to-api" style="stroke:#181818;stroke-width:1;"/><polygon fill="#181818" points="180.44,367.5816,185.6106,359.1992,181.1104,362.6267,177.6828,358.1265,180.44,367.5816" style="stroke:#181818;stroke-width:1;"/><text fill="#000000" font-family="Microsoft YaHei" font-size="13" lengthAdjust="spacing" textLength="119.7168" x="204" y="267.897">devServer &#20195;&#29702; /api</text></g><!--link api to ctl--><g id="link_api_ctl"><path d="M178.19,405.8816 C178.37,423.2316 178.63,449.1616 178.81,466.4816 " fill="none" id="api-ctl" style="stroke:#181818;stroke-width:1;"/></g><!--link ctl to svc--><g id="link_ctl_svc"><path d="M181.63,504.8816 C184.14,522.2316 187.88,548.1616 190.38,565.4816 " fill="none" id="ctl-svc" style="stroke:#181818;stroke-width:1;"/></g><!--link svc to dao--><g id="link_svc_dao"><path d="M190.52,604.0516 C187.73,624.8316 183.21,658.4316 180.43,679.0716 " fill="none" id="svc-dao" style="stroke:#181818;stroke-width:1;"/></g><!--link dao to db--><g id="link_dao_db"><path d="M178,717.2616 C178,737.5316 178,764.3816 178,786.3616 " fill="none" id="dao-to-db" style="stroke:#181818;stroke-width:1;"/><polygon fill="#181818" points="178,792.3616,182,783.3616,178,787.3616,174,783.3616,178,792.3616" style="stroke:#181818;stroke-width:1;"/></g><!--link svc to redis--><g id="link_svc_redis"><path d="M214.83,603.8016 C234.7,620.3416 259.8872,641.3047 283.7872,661.1847 " fill="none" id="svc-to-redis" style="stroke:#181818;stroke-width:1;"/><polygon fill="#181818" points="288.4,665.0216,284.0387,656.191,284.556,661.8242,278.9228,662.3414,288.4,665.0216" style="stroke:#181818;stroke-width:1;"/></g><!--link svc to crawl--><g id="link_svc_crawl"><path d="M239.92,603.6816 C287.05,621.8016 354.5995,647.7789 408.3495,668.4389 " fill="none" id="svc-to-crawl" style="stroke:#181818;stroke-width:1;"/><polygon fill="#181818" points="413.95,670.5916,406.9843,663.6289,409.2829,668.7977,404.1141,671.0963,413.95,670.5916" style="stroke:#181818;stroke-width:1;"/></g><!--link svc to llm--><g id="link_svc_llm"><path d="M243.28,593.7516 C316.09,606.0316 454.8,631.4916 570,664.6416 C575.63,666.2616 575.722,666.192 581.512,668.102 " fill="none" id="svc-to-llm" style="stroke:#181818;stroke-width:1;"/><polygon fill="#181818" points="587.21,669.9816,579.9161,663.3635,582.4617,668.4152,577.4099,670.9608,587.21,669.9816" style="stroke:#181818;stroke-width:1;"/></g><!--SRC=[LL9TQnD157tVNt69Bqf8W-YJ3q9QMwiaRUs6WXeV9hkJi7Ooi-nE4aiHOci- -c1JRIYes69gC20sYb-qYVwQpcxov5zmPj90PBdit7lkENllsU4E9nZ4sp_NPwv2-AqVze-2Il_yztvm-3CuV2u1mrztg8iyL80iijRp7YjIUuuHvi6bXOHwfZfid4D5mXSOvKkeW26ISYoF-Ip7uJvQn4vagjTY1PTHJBd9D-GC7hOuedc23SELtq5voHOdxQ3nA_pKYy2c0V0m-D4SVco8rzqCNIlYQn25UO8BKW9MID5_1CY7CiuQJwSaWjsEg7R4rwtBejaRLNQkN4WjvHtw1EAGJfeGzXl1vxQcKrN-Jq2SjS9MLmfS44tNSsWUPXdZ44UkesdohR0vkRV72C6UL3RDUOrPd6WUzagEXI4S70IxhpJYboo5t4eioqrI6xE8E-CbRCJK33RYA8jyPUE6UIyPqL1sghoARSVFq0Scvl5HwrbyL7qnQh_JVPw238kmeYrt-70mskx2OZgzag6MXyfavh7Fg1moUD-H3cc6hayOoMGgGvTTJ1DtG5G7ukHK_eLmwrHt4b8m36aqn68tnux13Irk6kDCrPKbanvvbXqsBYaJf3dd_UDmhwRjCnGMircPnhHJCYQfiaV695McoD22qWMDoEDuqKasNcAIgK4funYoZ7DM09RJ9O3mg3FirSJP_j_1cxjhAH2rgcZKmvrwD4F5tijHlHaSLyBlxUXguZOClspB6s1WQeCI-mS0]--></g></svg>