<svg xmlns="http://www.w3.org/2000/svg" xmlns:xlink="http://www.w3.org/1999/xlink" contentStyleType="text/css" height="615px" preserveAspectRatio="none" style="width:400px;height:615px;background:#FAFAFA;" version="1.1" viewBox="0 0 400 615" width="400px" zoomAndPan="magnify"><title>&#22270;4.4 &#26680;&#24515;&#23454;&#20307; ER &#22270;&#65288;&#31034;&#24847;&#65289;</title><defs/><g><rect fill="#FAFAFA" height="615" style="stroke:none;stroke-width:1;" width="400" x="0" y="0"/><text fill="#000000" font-family="Microsoft YaHei" font-size="14" font-weight="bold" lengthAdjust="spacing" textLength="191.5566" x="97.2485" y="24.8135">&#22270;4.4 &#26680;&#24515;&#23454;&#20307; ER &#22270;&#65288;&#31034;&#24847;&#65289;</text><!--class u--><g id="elem_u"><rect codeLine="6" fill="#F1F1F1" height="81.4326" id="u" rx="2.5" ry="2.5" style="stroke:#181818;stroke-width:0.5;" width="87.9814" x="150" y="46.4775"/><text fill="#000000" font-family="Microsoft YaHei" font-size="14" lengthAdjust="spacing" textLength="34.877" x="176.5522" y="66.291">users</text><line style="stroke:#181818;stroke-width:0.5;" x1="151" x2="236.9814" y1="74.9551" y2="74.9551"/><ellipse cx="161" cy="89.6938" fill="#000000" rx="3" ry="3" style="stroke:#000000;stroke-width:1;"/><text fill="#000000" font-family="Microsoft YaHei" font-size="14" lengthAdjust="spacing" textLength="41.7881" x="170" y="93.7686">id : PK</text><line style="stroke:#181818;stroke-width:1;" x1="151" x2="236.9814" y1="101.4326" y2="101.4326"/><text fill="#000000" font-family="Microsoft YaHei" font-size="14" lengthAdjust="spacing" textLength="75.9814" x="156" y="120.2461">&#36134;&#21495;/&#37197;&#39069;&#31561;</text></g><!--class c--><g id="elem_c"><rect codeLine="12" fill="#F1F1F1" height="81.4326" id="c" rx="2.5" ry="2.5" style="stroke:#181818;stroke-width:0.5;" width="121.9629" x="63" y="367.4775"/><text fill="#000000" font-family="Microsoft YaHei" font-size="14" lengthAdjust="spacing" textLength="61.5645" x="93.1992" y="387.291">case_info</text><line style="stroke:#181818;stroke-width:0.5;" x1="64" x2="183.9629" y1="395.9551" y2="395.9551"/><ellipse cx="74" cy="410.6938" fill="#000000" rx="3" ry="3" style="stroke:#000000;stroke-width:1;"/><text fill="#000000" font-family="Microsoft YaHei" font-size="14" lengthAdjust="spacing" textLength="77.2461" x="83" y="414.7686">case_id : PK</text><line style="stroke:#181818;stroke-width:1;" x1="64" x2="183.9629" y1="422.4326" y2="422.4326"/><text fill="#000000" font-family="Microsoft YaHei" font-size="14" lengthAdjust="spacing" textLength="109.9629" x="69" y="441.2461">&#20803;&#25968;&#25454;/&#22269;&#21035;/&#27861;&#38498;</text></g><!--class d--><g id="elem_d"><rect codeLine="18" fill="#F1F1F1" height="81.4326" id="d" rx="2.5" ry="2.5" style="stroke:#181818;stroke-width:0.5;" width="117.9023" x="65" y="527.4775"/><text fill="#000000" font-family="Microsoft YaHei" font-size="14" lengthAdjust="spacing" textLength="105.1436" x="71.3794" y="547.291">case_detail_info</text><line style="stroke:#181818;stroke-width:0.5;" x1="66" x2="181.9023" y1="555.9551" y2="555.9551"/><ellipse cx="76" cy="570.6938" fill="#000000" rx="3" ry="3" style="stroke:#000000;stroke-width:1;"/><text fill="#000000" font-family="Microsoft YaHei" font-size="14" lengthAdjust="spacing" textLength="76.1182" x="85" y="574.7686">case_id : FK</text><line style="stroke:#181818;stroke-width:1;" x1="66" x2="181.9023" y1="582.4326" y2="582.4326"/><text fill="#000000" font-family="Microsoft YaHei" font-size="14" lengthAdjust="spacing" textLength="105.9023" x="71" y="601.2461">&#27491;&#25991;/Markdown</text></g><!--class f--><g id="elem_f"><rect codeLine="24" fill="#F1F1F1" height="99.9102" id="f" rx="2.5" ry="2.5" style="stroke:#181818;stroke-width:0.5;" width="98.2236" x="7" y="206.4775"/><text fill="#000000" font-family="Microsoft YaHei" font-size="14" lengthAdjust="spacing" textLength="92.2236" x="10" y="226.291">user_favorites</text><line style="stroke:#181818;stroke-width:0.5;" x1="8" x2="104.2236" y1="234.9551" y2="234.9551"/><ellipse cx="18" cy="249.6938" fill="#000000" rx="3" ry="3" style="stroke:#000000;stroke-width:1;"/><text fill="#000000" font-family="Microsoft YaHei" font-size="14" lengthAdjust="spacing" textLength="41.7881" x="27" y="253.7686">id : PK</text><line style="stroke:#181818;stroke-width:1;" x1="8" x2="104.2236" y1="261.4326" y2="261.4326"/><text fill="#000000" font-family="Microsoft YaHei" font-size="14" lengthAdjust="spacing" textLength="75.332" x="13" y="280.2461">user_id : FK</text><text fill="#000000" font-family="Microsoft YaHei" font-size="14" lengthAdjust="spacing" textLength="76.1182" x="13" y="298.7236">case_id : FK</text></g><!--class h--><g id="elem_h"><rect codeLine="31" fill="#F1F1F1" height="99.9102" id="h" rx="2.5" ry="2.5" style="stroke:#181818;stroke-width:0.5;" width="106.6387" x="140.5" y="206.4775"/><text fill="#000000" font-family="Microsoft YaHei" font-size="14" lengthAdjust="spacing" textLength="100.6387" x="143.5" y="226.291">browse_history</text><line style="stroke:#181818;stroke-width:0.5;" x1="141.5" x2="246.1387" y1="234.9551" y2="234.9551"/><ellipse cx="151.5" cy="249.6938" fill="#000000" rx="3" ry="3" style="stroke:#000000;stroke-width:1;"/><text fill="#000000" font-family="Microsoft YaHei" font-size="14" lengthAdjust="spacing" textLength="41.7881" x="160.5" y="253.7686">id : PK</text><line style="stroke:#181818;stroke-width:1;" x1="141.5" x2="246.1387" y1="261.4326" y2="261.4326"/><text fill="#000000" font-family="Microsoft YaHei" font-size="14" lengthAdjust="spacing" textLength="75.332" x="146.5" y="280.2461">user_id : FK</text><text fill="#000000" font-family="Microsoft YaHei" font-size="14" lengthAdjust="spacing" textLength="76.1182" x="146.5" y="298.7236">case_id : FK</text></g><!--class p--><g id="elem_p"><rect codeLine="38" fill="#F1F1F1" height="99.9102" id="p" rx="2.5" ry="2.5" style="stroke:#181818;stroke-width:0.5;" width="110.5537" x="282.5" y="206.4775"/><text fill="#000000" font-family="Microsoft YaHei" font-size="14" lengthAdjust="spacing" textLength="101.7598" x="286.897" y="226.291">payment_order</text><line style="stroke:#181818;stroke-width:0.5;" x1="283.5" x2="392.0537" y1="234.9551" y2="234.9551"/><ellipse cx="293.5" cy="249.6938" fill="#000000" rx="3" ry="3" style="stroke:#000000;stroke-width:1;"/><text fill="#000000" font-family="Microsoft YaHei" font-size="14" lengthAdjust="spacing" textLength="84.5537" x="302.5" y="253.7686">order_id : PK</text><line style="stroke:#181818;stroke-width:1;" x1="283.5" x2="392.0537" y1="261.4326" y2="261.4326"/><text fill="#000000" font-family="Microsoft YaHei" font-size="14" lengthAdjust="spacing" textLength="75.332" x="288.5" y="280.2461">user_id : FK</text><text fill="#000000" font-family="Microsoft YaHei" font-size="14" lengthAdjust="spacing" textLength="61.9814" x="288.5" y="298.7236">&#29366;&#24577;/&#37329;&#39069;</text></g><!--link u to f--><g id="link_u_f"><path codeLine="45" d="M156.2117,133.8508 C136.8417,157.3508 128.6772,167.2765 108.0672,192.2865 " fill="none" id="u-f" style="stroke:#181818;stroke-width:1;"/><line style="stroke:#181818;stroke-width:1;" x1="155.6692" x2="161.8425" y1="128.22" y2="133.3083"/><line style="stroke:#181818;stroke-width:1;" x1="153.7611" x2="159.9343" y1="130.535" y2="135.6233"/><line style="stroke:#181818;stroke-width:1;" x1="156.2117" x2="161.3" y1="133.8508" y2="127.6775"/><line style="stroke:#181818;stroke-width:1;" x1="101.7076" x2="101.2504" y1="200.0037" y2="209.9933"/><line style="stroke:#181818;stroke-width:1;" x1="101.7076" x2="91.9896" y1="200.0037" y2="202.3618"/><line style="stroke:#181818;stroke-width:1;" x1="101.7076" x2="96.62" y1="200.0037" y2="206.1775"/><ellipse cx="105.5234" cy="195.3734" fill="none" rx="4" ry="4" style="stroke:#181818;stroke-width:1;"/><text fill="#000000" font-family="Microsoft YaHei" font-size="13" lengthAdjust="spacing" textLength="19.7983" x="135" y="172.2329">1..*</text></g><!--link u to h--><g id="link_u_h"><path codeLine="46" d="M194,135.6775 C194,159.1775 194,163.1675 194,188.1775 " fill="none" id="u-h" style="stroke:#181818;stroke-width:1;"/><line style="stroke:#181818;stroke-width:1;" x1="190" x2="198" y1="131.6775" y2="131.6775"/><line style="stroke:#181818;stroke-width:1;" x1="190" x2="198" y1="134.6775" y2="134.6775"/><line style="stroke:#181818;stroke-width:1;" x1="194" x2="194" y1="135.6775" y2="127.6775"/><line style="stroke:#181818;stroke-width:1;" x1="194" x2="200" y1="198.1775" y2="206.1775"/><line style="stroke:#181818;stroke-width:1;" x1="194" x2="188" y1="198.1775" y2="206.1775"/><line style="stroke:#181818;stroke-width:1;" x1="194" x2="194" y1="198.1775" y2="206.1775"/><ellipse cx="194" cy="192.1775" fill="none" rx="4" ry="4" style="stroke:#181818;stroke-width:1;"/><text fill="#000000" font-family="Microsoft YaHei" font-size="13" lengthAdjust="spacing" textLength="19.7983" x="195" y="172.2329">1..*</text></g><!--link u to p--><g id="link_u_p"><path codeLine="47" d="M233.3463,133.743 C253.5563,157.243 262.3729,167.5206 283.8829,192.5306 " fill="none" id="u-p" style="stroke:#181818;stroke-width:1;"/><line style="stroke:#181818;stroke-width:1;" x1="227.7054" x2="233.7709" y1="133.3184" y2="128.1021"/><line style="stroke:#181818;stroke-width:1;" x1="229.6615" x2="235.727" y1="135.593" y2="130.3767"/><line style="stroke:#181818;stroke-width:1;" x1="233.3463" x2="228.13" y1="133.743" y2="127.6775"/><line style="stroke:#181818;stroke-width:1;" x1="290.4035" x2="300.169" y1="200.1122" y2="202.2652"/><line style="stroke:#181818;stroke-width:1;" x1="290.4035" x2="291.071" y1="200.1122" y2="210.0899"/><line style="stroke:#181818;stroke-width:1;" x1="290.4035" x2="295.62" y1="200.1122" y2="206.1775"/><ellipse cx="286.4911" cy="195.5632" fill="none" rx="4" ry="4" style="stroke:#181818;stroke-width:1;"/><text fill="#000000" font-family="Microsoft YaHei" font-size="13" lengthAdjust="spacing" textLength="19.7983" x="267" y="172.2329">1..*</text></g><!--link c to d--><g id="link_c_d"><path codeLine="48" d="M124,456.8475 C124,480.8875 124,495.4075 124,519.3975 " fill="none" id="c-d" style="stroke:#181818;stroke-width:1;"/><line style="stroke:#181818;stroke-width:1;" x1="120" x2="128" y1="452.8475" y2="452.8475"/><line style="stroke:#181818;stroke-width:1;" x1="120" x2="128" y1="455.8475" y2="455.8475"/><line style="stroke:#181818;stroke-width:1;" x1="124" x2="124" y1="456.8475" y2="448.8475"/><line style="stroke:#181818;stroke-width:1;" x1="128" x2="120" y1="523.3975" y2="523.3975"/><line style="stroke:#181818;stroke-width:1;" x1="128" x2="120" y1="520.3975" y2="520.3975"/><line style="stroke:#181818;stroke-width:1;" x1="124" x2="124" y1="519.3975" y2="527.3975"/><text fill="#000000" font-family="Microsoft YaHei" font-size="13" lengthAdjust="spacing" textLength="21.5059" x="125" y="493.2329">1..1</text></g><!--link f to c--><g id="link_f_c"><path codeLine="49" d="M85.9048,323.2313 C94.8048,342.7913 94.1375,341.3156 102.5575,359.8256 " fill="none" id="f-c" style="stroke:#181818;stroke-width:1;"/><line style="stroke:#181818;stroke-width:1;" x1="81.7632" x2="72.9888" y1="314.1292" y2="309.3325"/><line style="stroke:#181818;stroke-width:1;" x1="81.7632" x2="83.9112" y1="314.1292" y2="304.3626"/><line style="stroke:#181818;stroke-width:1;" x1="81.7632" x2="78.45" y1="314.1292" y2="306.8475"/><ellipse cx="84.2481" cy="319.5904" fill="none" rx="4" ry="4" style="stroke:#181818;stroke-width:1;"/><line style="stroke:#181818;stroke-width:1;" x1="107.8547" x2="100.5728" y1="361.8103" y2="365.1228"/><line style="stroke:#181818;stroke-width:1;" x1="106.6126" x2="99.3306" y1="359.0796" y2="362.392"/><line style="stroke:#181818;stroke-width:1;" x1="102.5575" x2="105.87" y1="359.8256" y2="367.1075"/></g><!--link h to c--><g id="link_h_c"><path codeLine="50" d="M163.2562,323.1486 C154.0962,342.7086 154.7202,341.3514 146.0602,359.8614 " fill="none" id="h-c" style="stroke:#181818;stroke-width:1;"/><line style="stroke:#181818;stroke-width:1;" x1="167.4972" x2="165.4563" y1="314.0925" y2="304.3029"/><line style="stroke:#181818;stroke-width:1;" x1="167.4972" x2="176.3237" y1="314.0925" y2="309.3921"/><line style="stroke:#181818;stroke-width:1;" x1="167.4972" x2="170.89" y1="314.0925" y2="306.8475"/><ellipse cx="164.9526" cy="319.5261" fill="none" rx="4" ry="4" style="stroke:#181818;stroke-width:1;"/><line style="stroke:#181818;stroke-width:1;" x1="147.9882" x2="140.742" y1="365.1795" y2="361.7894"/><line style="stroke:#181818;stroke-width:1;" x1="149.2595" x2="142.0133" y1="362.4622" y2="359.0721"/><line style="stroke:#181818;stroke-width:1;" x1="146.0602" x2="142.67" y1="359.8614" y2="367.1075"/></g><!--SRC=[fT71Iy9G7C3n-_wA7-iMw10yUOj8WZ2YMoTvxRsrXtDllBqLaa9XeWOY4GKXHLXq2IKeAaBhdsapJ_qBRKkSedI9mVZntTjd_9YWmY3WjjwJyIHurw_kHzdjNdtsJs5bCyZVlThWziqxQdxtwfATewQ5ECh3Db9pEvmv9bvc1kEma5uAheaJc6Z8CKIQcM8TvGd86QfoPZDDm1PQ9LIMT8e9g9Ih1f4aOWeg2Y0xDk6s3CW61_ObW4MW65AmiURFiPX_-tgwSviloh3I6BOl1vswL8fULf5DijJKM0Ye8-2tJYjkfUoTFNYDhkAs-cxjNl4UpuONxHaC4u6e4PbunaoFJQzpuvrNbGpYESpsp4ahs2gheLt6gI2_wsdprmjFHl3KToR0RSxs_2SwjGNZXH3K_mLQg93tvopZcF3GiqPUMB9_guFZP-_WK1bMJ_oV4h0E58kn6Dltrqo1d8Z75-MewNEQ5JKrRCKYu55Bo9869HOsLTB7umy0]--></g></svg>